<svg xmlns="http://www.w3.org/2000/svg" xmlns:xlink="http://www.w3.org/1999/xlink" version="1.1" id="Layer_1" x="0px" y="0px" style="enable-background:new 0 0 1080 1080;" xml:space="preserve" viewBox="271.6 288.4 536.81 503.3">
<style type="text/css">
	.st0{fill:#D52A28;}
</style>
<g id="_508_Education_Graduation_Online">
	<path class="st0" d="M467.5,322.8L406.3,349c-2.7,1.3-3.9,4.5-2.8,7.2c0.9,2.6,3.8,4,6.5,3.1c0.3-0.1,0.6-0.2,0.8-0.4l58.5-25.4   l91.4,38.7c2.8,1.1,5.9-0.1,7.3-2.7c1.1-2.7,0-5.9-2.7-7.2l-93.2-40.7C470.5,321.6,468.9,322,467.5,322.8z"/>
	<path class="st0" d="M779.2,559.9h-96v-5.4c-0.2-13.5-9.6-25.2-22.9-28.1v-29.8c0.4-21.5,17.8-38.7,39.3-38.7h56   c23.5,0.7,43.2-17.7,43.9-41.2c0.7-23.5-17.7-43.2-41.2-43.9c-0.9,0-1.8,0-2.7,0h-98.9L473,294c-1.4-0.9-3.2-0.9-4.6,0l-185.6,80.5   c-2.1,1-3.6,3.1-3.6,5.4c-0.1,2.4,1.4,4.6,3.6,5.5l75.9,32.5v46.2c-0.1,2.2,1,4.2,2.8,5.4L465.7,522c0.9,0.9,1.9,0.9,3.7,0.9   c1.3,0.1,2.6-0.2,3.7-0.9l43.9-22.6V521c0.3,3,2.9,5.3,6,5c2.7-0.2,4.8-2.3,5-5v-27.1l49.4-24.5c1.9-1.1,3-3.2,2.8-5.4v-46.2   l74.9-32.5h98.7c17-0.6,31.3,12.6,31.9,29.6c0.6,17-12.6,31.3-29.6,31.9c-0.8,0-1.5,0-2.3,0h-55.7c-27.6,0-50.1,22.2-50.5,49.8   v29.8c-13.2,2.9-22.7,14.5-22.9,28.1v5.4H301.7c-16.5,0-30,13.3-30.1,29.9v172c0.1,16.5,13.6,29.9,30.1,29.9h476.6   c16.5,0,30-13.3,30.1-29.9v-172c0.5-16-12-29.3-28-29.9C780,559.9,779.6,559.9,779.2,559.9z M370.6,422.1l94.1,40.8v44.3   l-94.1-46.9V422.1z M475.7,507.2v-44.3l42.1-18.1v41.6L475.7,507.2z M569.9,459.5l-40.2,20.8v-40.7l40.2-17.2V459.5z M529.7,426.9   v-14.5c-0.1-2.1-1.1-4.1-2.8-5.4l-35.6-19c5.5-11.2,0.9-24.8-10.3-30.3c-11.2-5.5-24.8-0.9-30.3,10.3c-5.5,11.2-0.9,24.8,10.3,30.3   c3.2,1.6,6.7,2.4,10.2,2.3c4.5-0.2,8.9-1.5,12.9-3.6l34.7,18.1v15.4l-47.4,20.8c-17.2-7.2-152.6-66-170.9-73.2l170.9-73.2   l170.9,73.2C629.3,384.3,543.4,421.4,529.7,426.9L529.7,426.9z M470.3,390.7c-6.5-0.1-11.7-5.4-11.7-11.9   c0.1-6.5,5.4-11.7,11.9-11.7c6.5,0.1,11.7,5.3,11.7,11.8C481.2,382.5,476.6,390.7,470.3,390.7L470.3,390.7z M637.6,554.2   c0-9.6,7.8-17.4,17.4-17.4c9.6,0,17.4,7.8,17.4,17.4v5.4h-34.8L637.6,554.2z M797.5,761.5c-0.1,10.5-8.7,19-19.2,19H302   c-10.5,0-19.1-8.5-19.2-19V589.8c0.1-10.5,8.7-19,19.2-19h476.2c10.5,0,19.1,8.5,19.2,19L797.5,761.5z"/>
	<path class="st0" d="M621.1,588h-309c-2.9,0.2-5.3,2.5-5.5,5.4v34.4c0.2,2.9,2.5,5.2,5.5,5.4h309c2.9-0.2,5.3-2.5,5.5-5.4v-34.4   C626.3,590.5,624,588.1,621.1,588z M317.6,599.8h22.9v22.6h-22.9V599.8z M352.3,599.8h22.9v22.6h-22.9V599.8z M386.2,599.8H409   v22.6h-22.9V599.8z M420.9,599.8h22.9v22.6h-22.9V599.8z M454.7,599.8h22.9v22.6h-22.9V599.8z M489.4,599.8h22.9v22.6h-22.9V599.8z    M523.3,599.8h22.9v22.6h-22.9V599.8z M558,599.8h22.9v22.6H558V599.8z M614.7,622.4h-22.8v-22.6h22.8V622.4z"/>
	<path class="st0" d="M769.2,594.3H665.8c-2.9,0.2-5.3,2.5-5.5,5.5v22.6c0.2,2.9,2.6,5.2,5.5,5.4h103.3c2.9-0.2,5.3-2.5,5.5-5.4   v-22.6c0.1-2.9-2.1-5.3-5-5.5C769.5,594.3,769.3,594.3,769.2,594.3z M672.3,605.2h22.9v11.8h-22.9V605.2z M706.1,605.2H729v11.8   h-22.9V605.2z M763.6,616.9h-22.8v-11.8h22.8V616.9z"/>
	<path class="st0" d="M621.1,650.4h-309c-2.9,0.2-5.3,2.5-5.5,5.4v102.3c0.2,2.9,2.5,5.2,5.5,5.4h309c2.9-0.2,5.3-2.5,5.5-5.4V655.8   C626.3,652.9,624,650.6,621.1,650.4z M558,718.3v-22.5h57.6v22.6L558,718.3z M454.7,718.3v-22.5h22.9v22.6L454.7,718.3z    M420.9,718.3v-22.5h22.9v22.6L420.9,718.3z M386.2,718.3v-22.5H409v22.6L386.2,718.3z M317.6,695.8h22.9v22.6h-22.9V695.8z    M352.3,695.8h22.9v22.6h-22.9V695.8z M489.4,695.8h22.9v22.6h-22.9V695.8z M523.3,695.8h22.9v22.6h-22.9V695.8z M614.7,685h-22.8   v-22.6h22.8V685z M580.9,685H558v-22.6h22.9V685z M546.1,685h-22.9v-22.6h22.9V685z M512.3,685h-22.9v-22.6h22.9V685z M477.6,685   h-22.9v-22.6h22.9V685z M443.8,685h-22.9v-22.6h22.9V685z M409,685h-22.9v-22.6H409V685z M375.2,685h-22.9v-22.6h22.9V685z    M317.6,662.3h22.9V685h-22.9V662.3z M317.6,730.2h22.9v22.6h-22.9V730.2z M352.3,730.2h22.9v22.6h-22.9V730.2z M386.2,730.2h126.1   v22.6H386.2V730.2z M523.3,730.2h22.9v22.6h-22.9V730.2z M558,730.2h22.9v22.6H558V730.2z M614.7,752.9h-22.8v-22.6h22.8V752.9z"/>
	<path class="st0" d="M769.2,650.4H665.8c-2.9,0.2-5.3,2.5-5.5,5.4v102.3c0.2,2.9,2.6,5.2,5.5,5.4h103.3c2.9-0.2,5.3-2.5,5.5-5.4   V655.8C774.4,652.9,772.1,650.6,769.2,650.4z M672.3,695.8h22.9v22.6h-22.9V695.8z M706.1,695.8H729v22.6h-22.9V695.8z    M740.8,695.8h22.8v22.6h-22.8V695.8z M763.7,685h-22.9v-22.6h22.8L763.7,685z M729,685h-22.9v-22.6H729V685z M672.3,662.3h22.9   V685h-22.9V662.3z M672.3,730.2h22.9v22.6h-22.9V730.2z M706.1,730.2H729v22.6h-22.9V730.2z M763.6,752.7h-22.8v-22.4h22.8V752.7z"/>
	<path class="st0" d="M746.4,361.7c19-0.2,34.3-15.7,34.1-34.7c-0.2-19-15.7-34.3-34.7-34.1c-18.9,0.2-34.1,15.5-34.1,34.4   c0,19,15.4,34.4,34.4,34.4C746.2,361.7,746.3,361.7,746.4,361.7z M746.4,305.7c12.5,0.1,22.5,10.4,22.4,22.9   c-0.1,12.5-10.4,22.5-22.9,22.4c-12.4-0.1-22.4-10.2-22.4-22.6c-0.1-12.5,9.8-22.7,22.3-22.8c0.2,0,0.4,0,0.6,0V305.7z"/>
	<path class="st0" d="M335,531.9c12.5-0.1,22.5-10.4,22.4-22.9c-0.1-12.5-10.4-22.5-22.9-22.4c-12.4,0.1-22.4,10.2-22.4,22.6   c0,12.5,10,22.6,22.5,22.6C334.7,531.9,334.8,531.9,335,531.9z M335,497.4c6.5,0.1,11.7,5.4,11.6,11.9c-0.1,6.5-5.4,11.7-11.9,11.6   c-6.4-0.1-11.6-5.3-11.6-11.8C323.3,502.7,328.5,497.6,335,497.4L335,497.4z"/>
	<path class="st0" d="M303.9,435.9c4.5,0,8.1,3.7,8,8.2c0,4.5-3.7,8.1-8.2,8c-4.5,0-8-3.7-8.1-8.1   C295.7,439.5,299.4,435.9,303.9,435.9z"/>
	<path class="st0" d="M686.2,288.4c4.5,0,8.1,3.7,8,8.2s-3.7,8.1-8.2,8c-4.5,0-8-3.7-8.1-8.1C678,292,681.7,288.4,686.2,288.4z"/>
	<path class="st0" d="M611.9,305.6c4.5,0,8.2,3.7,8.1,8.2c0,4.5-3.7,8.2-8.2,8.1c-4.5,0-8.2-3.7-8.1-8.2   C603.8,309.2,607.4,305.6,611.9,305.6z"/>
	<path class="st0" d="M749.1,492c4.5,0,8.2,3.7,8.1,8.2c0,4.5-3.7,8.2-8.2,8.1c-4.5,0-8.1-3.7-8.1-8.2   C740.9,495.7,744.5,492,749.1,492z"/>
	<path class="st0" d="M617.3,435.9c4.5,0,8.1,3.7,8,8.2c0,4.5-3.7,8.1-8.2,8c-4.5,0-8-3.7-8.1-8.1   C609.1,439.5,612.8,435.9,617.3,435.9C617.3,435.9,617.3,435.9,617.3,435.9z"/>
	<path class="st0" d="M337.7,305.6c4.5,0,8.1,3.7,8.1,8.3c0,4.5-3.7,8.1-8.3,8.1c-4.5,0-8.1-3.7-8.1-8.2   C329.5,309.2,333.2,305.5,337.7,305.6z"/>
	<path class="st0" d="M566.2,521c4.5,0,8.2,3.7,8.1,8.2c0,4.5-3.7,8.2-8.2,8.1c-4.5,0-8.2-3.7-8.1-8.2   C558,524.6,561.7,520.9,566.2,521C566.2,521,566.2,521,566.2,521z"/>
</g>
</svg>