<svg xmlns="http://www.w3.org/2000/svg" xmlns:xlink="http://www.w3.org/1999/xlink" version="1.1" id="Layer_1" x="0px" y="0px" style="enable-background:new 0 0 1080 1080;" xml:space="preserve" viewBox="284.1 274.13 511.8 531.78">
<style type="text/css">
	.st0{fill:#D52A28;}
</style>
<g id="_504_Graduation_Cap_Education_Geography_Globe">
	<path class="st0" d="M480.2,337.4c1,2.7,4,4.2,6.7,3.2c0.3-0.1,0.6-0.2,0.9-0.4l60.3-26.1l94.2,39.9c2.9,1.2,6.1,0,7.5-2.8   c1.2-2.8-0.1-6.1-2.8-7.5l-96.1-42c-1.4-0.9-3.3-0.9-4.7,0l-63.1,28C480.2,331.1,478.9,334.5,480.2,337.4z"/>
	<path class="st0" d="M679.1,748.9c31.5-32.9,49.1-76.7,49-122.3l0,0c0.2-59.9-30-115.7-80.1-148.4h8.5c3-0.2,5.4-2.6,5.6-5.6v-71.9   l69.7-29.7v67.2c-12,2.5-20.6,13-20.7,25.2v31.7c0.2,3,2.7,5.4,5.7,5.6h41.5c3-0.2,5.4-2.6,5.6-5.6v-31.7   c0.2-12.3-8.6-23-20.7-25.2v-77.6c0-0.9,0-1.9-0.9-1.9l0,0l-0.9-0.9l-1-0.9c-0.9,0,8.5,3.7-191.3-82.1c-1.4-0.9-3.3-0.9-4.7,0   L353.9,357c-2.2,1-3.7,3.2-3.7,5.6c-0.1,2.5,1.4,4.7,3.7,5.6l78.3,33.6v71.9c0.2,3,2.6,5.4,5.6,5.6h8.5   c-49.8,33-79.8,88.7-79.9,148.4c0,98,81.1,178.2,180,178.2c49.1,0.3,96.1-19.6,130.1-55h0.9L679.1,748.9z M634.7,707.9   c6.9-24.6,10.4-50,10.4-75.5h71.7c-1.1,38.8-16.1,75.9-42.4,104.5C662.4,725.6,649.1,715.8,634.7,707.9L634.7,707.9z M422.6,736.8   c-26.3-28.6-41.4-65.7-42.4-104.5h71.6c0,25.5,3.4,50.9,10.3,75.5C447.6,715.2,434.2,725.1,422.6,736.8L422.6,736.8z M509.3,478.3   h33v76.6c-23.1-1-45.8-6.4-66.9-15.9C484,513.7,495.3,492.3,509.3,478.3L509.3,478.3z M586.6,478.3c14.2,14,25.5,35.5,34,60.7   c-21.1,9.5-43.8,14.9-66.9,15.9v-76.6H586.6z M554.6,566c24.2-0.8,47.9-6.5,69.8-16.8c6.1,23.2,9.3,47,9.4,71h-79.1L554.6,566z    M542.3,566v54.1h-79.1c0.1-24,3.3-47.8,9.4-71C494.5,559.4,518.2,565.2,542.3,566L542.3,566z M463.2,632.3h79.1v54   c-24.1,0.8-47.9,6.6-69.7,16.9C466.6,680.1,463.4,656.2,463.2,632.3L463.2,632.3z M554.6,632.3h79.2c-0.2,24-3.3,47.8-9.4,71   c-21.8-10.4-45.6-15.9-69.8-15.9V632.3z M716.7,620.1h-70.7c0.1-25.5-3.4-50.9-10.3-75.5c14.4-7.9,27.6-17.7,39.5-28.9   C700.4,544.9,715,581.7,716.7,620.1z M665.8,507.2c-10.6,10-22.3,18.8-34.9,26.1c-5.3-20.2-15-39-28.3-55.1h22.6   C640.3,485.7,654,495.5,665.8,507.2L665.8,507.2z M753.5,463.3v26.1h-29.2v-26.1c-0.1-8.2,6.5-14.8,14.6-14.9c0.1,0,0.3,0,0.4,0   c7.8-0.1,14.1,6.1,14.2,13.9C753.6,462.7,753.6,463,753.5,463.3L753.5,463.3z M548.1,285.1l176.3,75.5   C706.6,368,566,428.7,548.1,436c-17.8-7.5-157.4-68.1-176.3-75.5L548.1,285.1z M445.3,405.5l100.8,42.9c1.4,0.9,3.3,0.9,4.7,0   l100.9-42.9v61.6H446.3v-61.6H445.3z M494.1,478.3c-12.5,16.6-22.1,35.2-28.3,55.1c-12.6-7.3-24.3-16.1-34.8-26.1   c12.1-11.5,25.7-21.2,40.5-28.9L494.1,478.3z M422.6,515.6c11.9,11.3,25.2,21,39.5,28.9c-6.9,24.6-10.4,49.9-10.3,75.5h-70.5   c0-38.8,14.9-76.2,41.5-104.4H422.6z M430.1,745.2c10.6-10,22.3-18.8,34.9-26.1c8.5,24.3,21.7,51.3,41.5,68.1   c-28.7-6.8-55.1-21.3-76.2-42L430.1,745.2z M488.5,745.2c-5.2-10.3-9.6-20.9-13.3-31.7c21.1-9.5,43.8-14.9,66.9-15.9v94.3   c-19.5-1.9-38.4-18.7-53.4-46.7L488.5,745.2z M554.6,792.8v-95.3c23.1,1,45.8,6.4,66.9,15.9c-3.7,10.9-8.2,21.5-13.3,31.7   C593.3,773.2,574.4,790,554.6,792.8z M631,719.1c12.6,7.3,24.3,16.1,34.9,26.1c-21.2,20.8-47.5,35.6-76.3,42.9   C610.2,770.4,623.5,744.3,631,719.1L631,719.1z"/>
	<path class="st0" d="M324.7,413.9c-22.7,0.2-40.9,18.8-40.6,41.5c0.2,22.7,18.8,40.9,41.5,40.6c22.5-0.2,40.6-18.6,40.6-41.1   C365.9,432.2,347.4,414,324.7,413.9z M324.7,483.9c-16-0.1-28.8-13.2-28.7-29.2c0.1-16,13.2-28.8,29.2-28.7   c15.9,0.1,28.7,13.1,28.7,28.9C353.7,471,340.7,483.9,324.7,483.9z"/>
	<path class="st0" d="M766.7,693.8c-16,0.1-28.8,13.2-28.7,29.2c0.1,16,13.2,28.8,29.2,28.7c15.9-0.1,28.7-13.1,28.7-28.9   C795.8,706.8,782.7,693.9,766.7,693.8z M766.7,740.5c-9.8,0-17.8-7.9-17.8-17.8c-0.3-9.5,7.2-17.5,16.7-17.8c0.4,0,0.7,0,1.1,0   c9.8,0,17.8,7.9,17.8,17.8C784.5,732.6,776.5,740.5,766.7,740.5z"/>
	<path class="st0" d="M763.9,315c4.6,0,8.3,3.8,8.3,8.5c0,4.6-3.8,8.3-8.5,8.3c-4.6,0-8.3-3.8-8.3-8.4   C755.5,318.7,759.2,315,763.9,315z"/>
	<path class="st0" d="M392.7,280.4c4.7,0,8.4,3.8,8.4,8.5c0,4.7-3.8,8.4-8.5,8.4c-4.7,0-8.4-3.8-8.4-8.5S388.1,280.4,392.7,280.4   C392.7,280.4,392.7,280.4,392.7,280.4z"/>
	<path class="st0" d="M327.5,338.3c4.6,0,8.3,3.8,8.3,8.5c0,4.6-3.8,8.3-8.5,8.3c-4.6,0-8.3-3.8-8.3-8.4   C319,342.1,322.8,338.3,327.5,338.3C327.5,338.3,327.5,338.3,327.5,338.3z"/>
	<path class="st0" d="M780.9,548.3c4.7,0,8.4,3.8,8.4,8.5c0,4.7-3.8,8.4-8.5,8.4c-4.6,0-8.4-3.8-8.4-8.4   C772.4,552,776.2,548.3,780.9,548.3z"/>
	<path class="st0" d="M339.8,542.7c4.7,0,8.4,3.8,8.4,8.5c0,4.7-3.8,8.4-8.5,8.4c-4.7,0-8.4-3.8-8.4-8.5   C331.3,546.4,335.1,542.6,339.8,542.7C339.8,542.7,339.8,542.7,339.8,542.7z"/>
	<path class="st0" d="M333.2,758.3c4.6,0,8.3,3.8,8.3,8.5c0,4.6-3.8,8.3-8.5,8.3c-4.6,0-8.3-3.8-8.3-8.4   C324.7,762,328.5,758.2,333.2,758.3C333.2,758.3,333.2,758.3,333.2,758.3z"/>
	<path class="st0" d="M722.4,763.8c4.7,0,8.4,3.8,8.4,8.5c0,4.7-3.8,8.4-8.5,8.4c-4.7,0-8.4-3.8-8.4-8.5   C714,767.6,717.8,763.8,722.4,763.8C722.4,763.8,722.4,763.8,722.4,763.8z"/>
</g>
</svg>