<svg xmlns="http://www.w3.org/2000/svg" xmlns:xlink="http://www.w3.org/1999/xlink" version="1.1" id="Layer_1" x="0px" y="0px" style="enable-background:new 0 0 1080 1080;" xml:space="preserve" viewBox="276.56 278.83 526.85 522.17">
<style type="text/css">
	.st0{fill:#D52A28;}
</style>
<g id="_514_Apps_Education_Education_Apps_Learning_Apps">
	<path class="st0" d="M790.9,292.1c-18.1-17.7-47-17.7-65.2,0l-58.9,58.4L632,330.1c-2.1-1.6-5-1.2-6.6,0.9   c-0.2,0.3-0.4,0.6-0.5,0.9l-32.1,48.6c-6.9-2.6-14.1-4.4-21.4-5.3l-2.7-58.5c-0.2-2.9-2.5-5.2-5.4-5.3h-50   c-2.9,0.2-5.2,2.5-5.3,5.3l-3.6,58.3l-21.4,5.3l-32.1-48.6c-1.2-2.4-4.2-3.3-6.6-2.1c-0.2,0.1-0.4,0.2-0.6,0.4l-42.8,24.9   c-2.4,1.1-3.4,4-2.2,6.3c0.1,0.3,0.3,0.5,0.4,0.7l26.8,52.1c-5.5,4.6-10.6,9.6-15.2,15.1l-52.7-26.5c-2.5-1.4-5.6-0.6-7.1,1.8   l-25,43.3c-1.6,2-1.3,4.9,0.7,6.4c0.3,0.3,0.7,0.5,1,0.6l49.1,31.8c-2.6,6.8-4.4,14-5.3,21.2l-58.9,2.6c-2.9,0.2-5.2,2.4-5.4,5.3   v49.5c0.2,2.9,2.5,5.1,5.4,5.3l58.9,2.6c1.8,7.1,3.6,14.1,5.3,21.2l-49.1,31.8c-2.4,1.2-3.3,4-2.2,6.4c0.1,0.2,0.3,0.5,0.4,0.7   l20.5,34.5l-53.6,53c-0.9,0.9-0.9,1.8-1.8,2.6l-14.3,70.7c-0.2,1.9,0.4,3.9,1.8,5.3c1,0.9,2.2,1.5,3.5,1.8h1.1l71.5-14.1   c0.9,0,1.8-0.9,2.7-1.8l54.4-53.9l33,18.6c2.1,1.6,5,1.2,6.6-0.9c0.2-0.3,0.4-0.6,0.5-0.9l32.1-48.6c6.9,2.6,14.1,4.4,21.4,5.3   l2.7,58.3c0.2,2.9,2.5,5.1,5.3,5.3h50c2.9-0.2,5.2-2.4,5.4-5.3l2.6-58.3l21.4-5.3l32.1,48.6c1.2,2.4,4.2,3.3,6.6,2.1   c0.2-0.1,0.4-0.2,0.6-0.4l42.8-24.8c2.4-1.1,3.4-4,2.2-6.3c-0.1-0.3-0.3-0.5-0.4-0.7L650.1,666c5.5-4.6,10.6-9.6,15.2-15.1   l52.7,26.5c2.5,1.4,5.6,0.6,7.1-1.8l24.7-42.4c1.6-2,1.2-4.9-0.8-6.5c-0.3-0.2-0.6-0.4-1-0.6l-49.1-31.8c2.6-6.8,4.4-14,5.3-21.2   l58.9-2.6c2.9-0.2,5.1-2.4,5.3-5.3v-49.5c-0.2-2.9-2.5-5.1-5.3-5.3l-58.9-2.6c-1.8-7.1-3.6-14.1-5.3-21.2l49.1-31.8   c2.4-1.1,3.4-3.9,2.2-6.3c-0.1-0.3-0.3-0.5-0.5-0.8L731,414.9l58.9-58.3c8.5-8.4,13.3-19.9,13.4-31.8   C804.2,312.6,799.7,300.6,790.9,292.1z M700.7,430.2l-49.1-48.6l49.1-48.6l49.1,48.4L700.7,430.2z M636.2,540.5   c-0.1,53.8-43.8,97.3-97.6,97.2c-0.2,0-0.4,0-0.6,0c-9.4,0.2-18.7-1-27.7-3.5L632,513.9C634.8,522.5,636.2,531.4,636.2,540.5z    M498.8,629.8c-8.3-3.7-16.1-8.4-23.2-14.2l197.3-197.1l19.6,19.4L498.8,629.8z M439.9,540.5c0.1-53.8,43.8-97.3,97.6-97.2   c0.2,0,0.4,0,0.6,0c10.3,0,20.5,1.5,30.4,4.2L444.4,570.3c-2.8-9.7-4.3-19.7-4.3-29.8H439.9z M643.4,389.1l21.4,21L467.6,607.3   c-7.2-8.1-13.5-17-18.8-26.5c9.1-7.6,186.7-183.5,194.7-191.4L643.4,389.1z M320.3,709.1l31.2-30.9c1.8,1.2,4.1,1.5,6.2,0.9   l52.7-26.5c2,1.9,3.8,3.9,5.4,6.2L343.5,732L320.3,709.1z M349.7,777.2l-61.6,12.4l12.6-61l11.6-11.5l49.1,48.6L349.7,777.2z    M369.4,757.7l-18.8-18.5l72.3-73.4l1.8,1.8l-26.8,52.1c-1.4,2.4-0.6,5.6,1.8,7.1l0,0L369.4,757.7z M738.1,448.3l-48.2,30.9   c-1.8,1.5-2.5,4-1.8,6.2c3.3,8.9,5.7,18.1,7.1,27.4c0.3,2.7,2.7,4.6,5.3,4.4l58,2.6v38.9l-58,2.6c-2.6,0.1-4.8,1.9-5.3,4.4   c-1.9,9.3-4.2,18.4-7.1,27.4c-1,2.2-0.2,4.8,1.8,6.2l48.2,30.9l-19.6,35.4l-51.7-25.4c-2.5-1.3-5.5-0.5-7.1,1.8   c-6.2,7.4-13.1,14.2-20.6,20.3c-1.9,1.8-2.6,4.6-1.8,7.1l25.9,51.2l-33.9,19.5l-29.4-49.5c-1.6-1.8-4-2.5-6.3-1.8   c-9,3.3-18.2,5.7-27.7,7.1c-2.7,0.3-4.7,2.6-4.5,5.3l-3.6,57.4h-39.4l-2.7-57.4c-0.1-2.6-1.9-4.8-4.5-5.3   c-9.4-1.8-18.6-4.2-27.7-7.1c-2.2-1-4.8-0.2-6.2,1.8l-31.2,47.8l-33.9-19.5l25.9-51.2c1.3-2.5,0.5-5.5-1.8-7.1   c-7.7-5.8-14.5-12.7-20.4-20.3c-1.9-1.9-4.6-2.6-7.1-1.8L357,664.2l-19.6-33.6l48.2-30.9c1.8-1.5,2.5-4,1.8-6.2   c-3.3-8.9-5.7-18-7.1-27.4c-0.3-2.7-2.7-4.6-5.3-4.4l-58-2.6v-38.9l58-2.6c2.6-0.1,4.8-1.9,5.3-4.4c1.9-9.3,4.3-18.4,7.1-27.4   c1-2.2,0.2-4.8-1.8-6.2l-48.2-30.9l19.6-33.6l51.8,25.6c2.5,1.2,5.5,0.5,7.1-1.8c6.2-7.4,13-14.2,20.5-20.3   c1.9-1.8,2.6-4.6,1.8-7.1l-25.9-51.2l33.9-19.5l31.2,47.8c1.5,1.8,4,2.5,6.2,1.8c9-3.3,18.3-5.7,27.7-7.1c2.7-0.3,4.7-2.6,4.5-5.3   l2.7-57.4h39.3l2.7,57.4c0.1,2.6,1.9,4.8,4.5,5.3c9.4,1.8,18.6,4.2,27.7,7.1c2.2,1,4.9,0.2,6.3-1.8l31.2-47.8l27.7,15.9l-82.1,81.3   c-12.3-4.6-25.3-6.9-38.4-7.1c-59.8-1.2-109.2,46.3-110.4,106.1c-1.2,59.8,46.3,109.2,106.1,110.4c1.4,0,2.8,0,4.3,0   c58.9,1.8,108-44.5,109.8-103.4c0-1.2,0.1-2.4,0-3.6c0.2-12.4-1.9-24.6-6.2-36.2l82.1-81.3L738.1,448.3z M782.7,348.4l-25.2,24.8   l-49.1-48.6l25.2-24.8c13.7-13.2,35.4-13.2,49.1,0c13.5,13.4,13.6,35.2,0.2,48.8c0,0,0,0-0.1,0.1L782.7,348.4z"/>
	<path class="st0" d="M332,378.7c21.5-0.2,38.7-17.8,38.5-39.3s-17.8-38.7-39.3-38.5c-21.3,0.2-38.5,17.6-38.5,38.9   c0,21.5,17.3,38.9,38.8,38.9C331.7,378.7,331.9,378.7,332,378.7z M332,312.4c15.1,0.2,27.3,12.6,27.1,27.7   c-0.2,15.1-12.6,27.3-27.7,27.1c-15-0.2-27.1-12.4-27.1-27.4c-0.4-14.7,11.2-26.9,25.9-27.3C330.8,312.4,331.4,312.4,332,312.4   L332,312.4z"/>
	<path class="st0" d="M749.8,715.5c-15.1,0.1-27.3,12.5-27.2,27.7c0.1,15.1,12.5,27.3,27.7,27.2c15-0.1,27.2-12.4,27.2-27.4   c0.5-14.7-11-26.9-25.7-27.4C751.1,715.4,750.4,715.5,749.8,715.5z M749.8,759.7c-9.3,0-16.8-7.5-16.8-16.8   c0-9.3,7.5-16.8,16.8-16.8c9.3,0,16.8,7.5,16.8,16.8C766.6,752.1,759,759.7,749.8,759.7z"/>
	<path class="st0" d="M781,428.2c4.4,0,7.9,3.6,7.9,8c0,4.4-3.6,7.9-8,7.9c-4.4,0-7.9-3.6-7.9-7.9C773,431.7,776.6,428.2,781,428.2z   "/>
	<path class="st0" d="M602.6,290.3c4.4,0,7.9,3.6,7.9,8c0,4.4-3.6,7.9-8,7.9c-4.4,0-7.9-3.6-7.9-7.9   C594.7,293.9,598.2,290.3,602.6,290.3z"/>
	<path class="st0" d="M407,290.3c4.4,0,7.9,3.6,7.9,8c0,4.4-3.6,7.9-8,7.9c-4.4,0-7.9-3.6-7.9-7.9C399,293.8,402.6,290.3,407,290.3   C407,290.3,407,290.3,407,290.3z"/>
	<path class="st0" d="M306.1,400.8c4.4,0,7.9,3.6,7.9,8c0,4.4-3.6,7.9-8,7.9c-4.4,0-7.9-3.6-7.9-7.9   C298.1,404.3,301.7,400.8,306.1,400.8z"/>
	<path class="st0" d="M295.4,610.3c4.4,0,7.9,3.6,7.9,8c0,4.4-3.6,7.9-8,7.9c-4.4,0-7.9-3.6-7.9-7.9   C287.4,613.8,291,610.3,295.4,610.3C295.4,610.3,295.4,610.3,295.4,610.3z"/>
	<path class="st0" d="M769.4,660.7c4.4,0,8,3.6,7.9,8c0,4.4-3.6,8-8,7.9c-4.4,0-7.9-3.6-7.9-8C761.4,664.2,765,660.7,769.4,660.7   C769.4,660.7,769.4,660.7,769.4,660.7z"/>
	<path class="st0" d="M674.8,754.4c4.4,0,8,3.6,7.9,8c0,4.4-3.6,8-8,7.9c-4.4,0-8-3.6-7.9-8C666.8,757.9,670.4,754.4,674.8,754.4z"/>
	<path class="st0" d="M468.6,759.7c4.4,0,8,3.6,7.9,8c0,4.4-3.6,8-8,7.9c-4.4,0-8-3.6-7.9-8C460.6,763.2,464.2,759.7,468.6,759.7z"/>
</g>
</svg>